<?xml version="1.0" standalone="no"?>
<!DOCTYPE svg PUBLIC "-//W3C//DTD SVG 20010904//EN"
 "http://www.w3.org/TR/2001/REC-SVG-20010904/DTD/svg10.dtd">
<svg version="1.0" xmlns="http://www.w3.org/2000/svg"
 width="500.000000pt" height="500.000000pt" viewBox="0 0 500.000000 500.000000"
 preserveAspectRatio="xMidYMid meet">
<metadata>
Created by potrace 1.14, written by Peter Selinger 2001-2017
</metadata>
<g transform="translate(0.000000,500.000000) scale(0.100000,-0.100000)"
fill="#000000" stroke="none">
<path d="M0 2500 l0 -2500 2500 0 2500 0 0 2500 0 2500 -2500 0 -2500 0 0
-2500z m2345 1721 c72 10 375 9 375 -2 0 -3 26 -12 58 -19 91 -20 221 -68 299
-111 40 -22 76 -38 80 -37 4 1 23 -12 42 -30 18 -18 43 -32 56 -32 13 0 22 -6
21 -12 0 -7 58 -69 129 -138 72 -69 127 -126 123 -128 -9 -5 75 -141 88 -142
6 0 14 -14 18 -31 3 -17 21 -72 40 -122 19 -51 40 -118 47 -149 7 -32 15 -58
18 -58 3 0 7 -30 9 -66 1 -36 5 -71 8 -76 19 -30 -4 -280 -37 -411 -11 -43
-17 -82 -14 -87 4 -6 2 -10 -3 -10 -5 0 -22 -30 -37 -68 -38 -91 -88 -180
-141 -253 -25 -33 -42 -64 -39 -69 4 -6 0 -10 -7 -10 -7 0 -47 -34 -88 -76
-41 -41 -108 -100 -147 -130 -40 -30 -73 -60 -73 -65 0 -6 -4 -8 -9 -5 -5 3
-49 -15 -97 -39 -87 -44 -231 -96 -306 -110 -21 -4 -38 -11 -38 -15 0 -4 -10
-5 -22 -3 -13 2 -75 0 -139 -5 -64 -5 -138 -6 -165 -2 -27 5 -96 16 -154 26
-58 10 -109 20 -115 24 -5 4 -32 15 -60 25 -27 10 -95 41 -150 69 -55 28 -104
51 -108 51 -4 0 -11 5 -15 10 -4 6 -39 36 -77 67 -78 63 -176 162 -220 223
-16 22 -40 52 -54 68 -14 15 -26 33 -27 40 -1 6 -17 39 -36 72 -61 108 -120
310 -134 455 -3 41 -11 81 -17 88 -7 9 -7 16 0 20 5 4 13 59 16 122 4 63 15
150 27 194 11 43 17 82 14 88 -3 5 2 18 12 29 10 11 26 50 35 87 10 37 18 60
18 53 1 -8 26 27 56 78 30 51 73 116 95 143 22 28 40 58 40 66 0 8 3 12 6 9 4
-4 43 28 88 70 77 73 233 184 277 198 13 4 18 12 15 22 -5 11 -2 13 10 9 9 -3
55 9 103 28 47 19 112 40 145 47 32 8 61 20 63 27 4 8 9 9 17 3 8 -7 36 -7 81
0z m-528 -2617 c27 -17 35 -45 31 -105 l-3 -44 -52 -3 -53 -3 0 35 c0 41 -18
56 -37 31 -24 -34 -15 -93 29 -189 35 -77 42 -101 42 -156 0 -109 -52 -182
-142 -196 -49 -8 -107 10 -127 39 -16 22 -21 113 -7 134 4 6 30 13 57 15 l49
3 -2 -40 c-1 -22 2 -47 7 -55 8 -12 13 -12 30 4 44 40 39 79 -29 235 -24 55
-32 88 -31 128 1 139 134 232 238 167z m393 1 c0 -8 -18 -99 -40 -202 -22
-103 -40 -191 -40 -195 0 -5 9 -8 21 -8 18 0 20 -4 14 -32 -10 -44 -13 -48
-35 -48 -19 0 -24 -9 -35 -70 -13 -71 -13 -70 -67 -70 l-50 0 6 33 c4 17 9 49
13 70 l6 37 -72 0 -71 0 6 28 c12 49 25 75 111 237 133 246 124 235 183 235
37 0 50 -4 50 -15z m253 -52 c4 -38 7 -93 8 -123 1 -89 14 -106 27 -35 7 33
20 96 29 140 l18 80 54 3 c51 3 53 2 48 -19 -4 -13 -34 -157 -69 -321 l-63
-298 -51 0 -52 0 -7 135 c-7 133 -17 166 -29 103 -3 -18 -16 -79 -27 -135
l-22 -103 -51 0 -52 0 17 83 c32 155 110 522 115 540 4 13 16 17 53 17 l48 0
6 -67z m443 40 c-72 -349 -118 -537 -135 -562 -23 -32 -85 -61 -132 -61 -24 0
-29 4 -25 18 3 9 8 29 12 44 3 16 17 33 32 41 29 13 32 25 102 367 18 85 34
161 36 168 2 8 23 12 59 12 56 0 57 0 51 -27z m360 10 c-2 -10 -7 -32 -11 -50
-6 -31 -8 -32 -68 -35 l-61 -3 -17 -77 -17 -78 28 0 c53 0 58 -6 47 -60 l-10
-50 -43 0 c-37 0 -44 -3 -49 -22 -2 -13 -11 -51 -18 -85 l-14 -63 59 0 60 0
-7 -42 c-4 -24 -9 -46 -12 -50 -2 -5 -56 -8 -119 -8 -105 0 -115 2 -110 18 3
9 32 148 66 307 33 160 63 296 65 303 3 9 37 12 120 12 106 0 116 -2 111 -17z
m290 2 c35 -14 64 -61 64 -104 0 -49 -25 -126 -55 -171 -32 -48 -33 -51 -40
-199 l-7 -151 -53 0 -52 0 3 138 c5 155 -2 152 -36 -20 l-24 -118 -53 0 c-29
0 -53 4 -53 10 0 5 29 147 65 315 36 169 65 308 65 311 0 11 145 2 176 -11z
m-1763 -880 c4 -8 2 -17 -3 -20 -6 -4 -10 -1 -10 4 0 6 -7 11 -15 11 -12 0
-15 -13 -15 -60 0 -63 11 -75 37 -42 12 16 13 15 11 -8 -3 -28 -45 -41 -59
-18 -10 15 -12 109 -3 132 8 20 50 21 57 1z m47 -65 c0 -47 -4 -80 -10 -80 -6
0 -10 33 -10 80 0 47 4 80 10 80 6 0 10 -33 10 -80z m85 0 l0 -75 -32 -3 -33
-3 0 74 c0 40 3 77 7 81 4 4 19 6 33 4 24 -3 25 -5 25 -78z m85 70 c0 -5 -9
-10 -21 -10 -15 0 -20 -5 -17 -22 2 -16 9 -22 21 -20 24 4 22 -15 -3 -23 -13
-4 -20 -15 -20 -31 0 -17 5 -24 20 -24 11 0 20 -4 20 -10 0 -5 -13 -10 -30
-10 l-30 0 0 64 c0 35 3 71 6 80 7 17 54 22 54 6z m88 -29 c2 -19 -1 -37 -7
-41 -8 -4 -7 -17 4 -43 8 -20 11 -37 6 -37 -5 0 -14 14 -21 30 -7 17 -16 30
-21 30 -5 0 -9 -13 -9 -30 0 -16 -4 -30 -10 -30 -11 0 -14 143 -3 154 4 4 19
6 33 4 20 -2 26 -9 28 -37z m79 22 c3 -7 -3 -9 -16 -6 -17 4 -21 1 -21 -21 0
-23 3 -25 19 -17 23 13 31 5 31 -31 0 -40 -17 -68 -41 -68 -21 0 -37 26 -24
38 4 4 10 1 12 -5 9 -24 33 -14 33 13 0 23 -3 25 -25 20 -24 -6 -25 -4 -25 37
0 24 3 47 7 51 11 10 46 3 50 -11z m88 7 c3 -5 -3 -10 -14 -10 -15 0 -21 -6
-21 -24 0 -20 4 -23 23 -19 l22 5 -22 -20 c-26 -23 -31 -62 -9 -62 8 0 18 -4
21 -10 4 -6 -7 -10 -24 -10 l-31 0 0 73 c0 41 3 77 7 80 10 10 41 8 48 -3z
m84 -4 c8 -10 9 -16 1 -21 -5 -3 -10 -1 -10 4 0 6 -7 11 -15 11 -12 0 -15 -13
-15 -60 0 -45 3 -60 14 -60 8 0 17 8 20 18 3 10 4 6 3 -8 -2 -20 -7 -25 -27
-25 -24 0 -25 3 -28 64 -2 35 -1 70 2 77 7 18 40 18 55 0z m51 -62 c0 -91 23
-82 31 12 l6 69 -1 -80 c-1 -78 -1 -80 -26 -80 -24 0 -25 2 -28 78 -2 53 1 77
8 72 5 -3 10 -36 10 -71z m126 11 c0 -33 4 -68 8 -77 5 -11 4 -18 -2 -18 -6 0
-15 14 -21 30 -13 38 -18 38 -30 -2 -8 -28 -9 -19 -10 50 l-1 83 28 -3 c26 -3
27 -5 28 -63z m46 -38 c2 -31 0 -57 -4 -57 -5 0 -7 37 -7 83 2 85 6 75 11 -26z
m88 93 c0 -5 -4 -10 -10 -10 -6 0 -10 -30 -10 -70 0 -40 -4 -70 -10 -70 -6 0
-10 30 -10 70 0 40 -4 70 -10 70 -5 0 -10 5 -10 10 0 6 14 10 30 10 17 0 30
-4 30 -10z m55 -53 c6 -1 11 13 13 31 2 17 8 32 13 32 6 0 9 -32 7 -77 -3 -75
-4 -78 -27 -78 -13 0 -26 6 -29 14 -3 9 1 11 17 6 18 -5 21 -2 21 25 0 28 -2
30 -20 20 -19 -10 -20 -8 -19 42 1 44 3 48 8 20 3 -18 11 -34 16 -35z m155 53
c0 -5 -6 -10 -13 -10 -10 0 -14 -18 -15 -60 -2 -55 4 -70 21 -53 4 3 2 13 -5
20 -9 11 -9 17 3 24 24 15 30 10 23 -18 -11 -50 -14 -54 -36 -51 -21 3 -23 9
-26 67 -2 35 -1 70 2 77 6 16 46 19 46 4z m148 -15 c3 -16 1 -18 -9 -7 -23 22
-29 13 -29 -48 0 -60 10 -75 30 -42 9 15 10 14 8 -8 -2 -19 -9 -25 -28 -25
-24 0 -25 3 -28 64 -2 35 -1 70 2 78 9 21 50 12 54 -12z m92 16 c0 -5 -6 -11
-12 -13 -8 -3 -15 -32 -19 -74 l-6 -69 -1 73 c-2 57 -5 72 -17 72 -8 0 -15 5
-15 10 0 6 16 10 35 10 19 0 35 -4 35 -9z m70 -1 c0 -5 -7 -10 -15 -10 -9 0
-15 -9 -15 -25 0 -18 4 -23 15 -19 8 4 15 2 15 -4 0 -5 -7 -12 -15 -16 -9 -3
-15 -19 -15 -41 0 -19 -4 -35 -10 -35 -11 0 -14 142 -3 153 10 11 43 8 43 -3z
m84 -5 c4 -12 0 -14 -20 -9 -23 6 -25 4 -22 -17 2 -18 8 -23 26 -21 19 3 22
-1 22 -32 0 -49 -9 -66 -35 -66 -24 0 -41 25 -25 35 6 4 10 1 10 -4 0 -6 7
-11 15 -11 10 0 15 10 15 30 0 27 -2 30 -19 20 -11 -5 -22 -10 -25 -10 -8 0
-8 64 0 84 8 20 50 21 58 1z"/>
<path d="M2319 4080 c-138 -24 -300 -84 -411 -153 -103 -64 -229 -173 -222
-192 4 -10 0 -15 -13 -15 -35 0 -151 -170 -198 -289 -23 -59 -21 -77 5 -46 18
21 41 19 94 -11 41 -23 56 -26 115 -22 135 7 201 83 323 378 47 112 85 167
144 209 41 30 113 66 119 59 1 -2 13 -34 25 -72 41 -125 125 -187 230 -170 81
13 133 67 170 179 l21 64 32 -11 c106 -37 168 -109 242 -282 117 -278 189
-356 328 -356 52 0 71 5 101 25 43 29 63 31 93 10 l22 -15 -21 57 c-24 71 -56
127 -119 214 -62 85 -204 220 -222 213 -9 -3 -16 3 -20 15 -3 13 -13 21 -26
21 -12 0 -21 6 -21 13 0 19 -162 102 -256 132 -154 49 -273 63 -328 40 -14 -6
-17 -5 -12 3 8 14 -118 15 -195 2z"/>
<path d="M2171 3883 c-51 -25 -82 -77 -145 -244 -33 -85 -75 -179 -95 -209
-20 -30 -36 -60 -36 -66 0 -6 -12 -27 -27 -46 -36 -47 -101 -78 -164 -78 -48
0 -125 27 -138 49 -9 14 -35 3 -69 -28 -24 -22 -27 -23 -22 -6 6 16 5 17 -4 5
-6 -8 -11 -27 -11 -42 0 -14 -6 -28 -12 -31 -10 -3 -11 -13 -1 -48 18 -68 8
-58 -18 18 l-23 68 -17 -90 c-18 -91 -25 -235 -11 -235 4 0 8 -33 9 -73 3
-116 84 -354 141 -413 11 -12 18 -26 14 -30 -4 -5 0 -3 8 4 20 17 60 15 60 -3
0 -10 -10 -15 -31 -15 l-30 0 18 -31 c31 -54 140 -176 190 -213 27 -20 57 -44
68 -55 67 -64 267 -162 380 -186 35 -7 68 -15 72 -18 5 -3 56 -11 114 -17 109
-12 293 0 313 20 4 4 14 6 22 3 41 -15 348 115 414 177 18 16 36 30 41 30 15
0 159 142 159 156 0 8 6 14 13 14 11 0 87 100 87 114 0 3 -338 6 -750 6 l-751
0 18 25 18 24 690 3 690 3 -95 24 c-88 23 -110 25 -307 22 -143 -1 -213 2
-213 9 0 7 79 10 238 10 261 0 335 -11 440 -64 l50 -25 36 69 c23 42 32 70 25
70 -7 0 -3 10 9 23 53 56 103 414 74 529 -6 24 -14 61 -18 83 l-6 40 -30 -83
c-32 -89 -47 -107 -23 -29 14 48 17 144 4 152 -4 3 -5 -5 -2 -17 4 -21 3 -21
-17 5 -12 15 -36 35 -52 43 -28 15 -31 14 -52 -5 -30 -28 -70 -41 -124 -41
-68 1 -123 30 -171 90 -40 50 -53 78 -29 64 7 -4 8 -3 4 5 -4 6 -11 9 -16 6
-5 -3 -16 8 -25 24 -19 38 -19 50 0 25 12 -15 12 -11 -1 18 -10 20 -22 34 -27
31 -6 -3 -7 -1 -3 5 4 6 -5 35 -20 64 -15 29 -37 81 -51 116 -44 118 -78 168
-135 198 -39 20 -44 18 -57 -26 -6 -22 -24 -53 -39 -69 -15 -16 -39 -44 -54
-64 -76 -98 -259 -103 -329 -8 -12 16 -27 27 -32 24 -6 -3 -7 -1 -3 5 4 6 0
24 -8 39 -17 32 -22 23 -5 -10 7 -15 2 -13 -15 8 -14 17 -32 48 -39 69 -16 48
-22 50 -66 29z m554 -740 c-4 -16 -7 -28 -8 -29 -1 0 -26 -6 -55 -12 -53 -12
-54 -12 -95 20 l-41 33 39 6 c22 3 69 7 104 8 l63 1 -7 -27z m129 -20 c42 -27
37 -51 -9 -39 -27 7 -75 51 -75 68 0 13 39 0 84 -29z m-401 -76 c59 -43 114
-92 122 -108 9 -16 29 -45 46 -64 23 -25 30 -42 27 -60 -7 -32 2 -31 82 5 36
16 66 27 68 25 10 -10 -12 -45 -28 -45 -28 0 -89 -57 -99 -94 -10 -39 -6 -48
24 -40 46 11 87 -29 99 -98 6 -30 4 -38 -9 -38 -8 0 -15 9 -15 20 0 29 -16 25
-42 -10 -27 -37 -40 -38 -36 -2 2 21 8 26 23 24 16 -3 17 -1 8 9 -9 9 -18 9
-42 -1 -17 -7 -38 -10 -46 -6 -9 3 -25 0 -36 -7 -16 -10 -21 -9 -29 3 -8 13
-13 13 -31 2 -18 -11 -26 -12 -45 -1 -19 9 -26 9 -38 0 -9 -8 -20 -9 -28 -4
-7 4 -29 9 -48 9 -19 1 -45 5 -57 9 -15 5 -23 3 -23 -4 0 -6 8 -11 18 -11 10
0 23 -5 29 -11 7 -7 22 -12 35 -13 19 -1 24 -7 26 -38 2 -21 1 -38 -2 -38 -18
0 -36 15 -36 31 0 10 -4 19 -10 19 -5 0 -10 -7 -10 -15 0 -25 -29 -17 -36 10
-6 26 -24 35 -24 13 0 -7 -9 1 -20 17 -14 21 -20 25 -20 13 0 -21 -23 -24 -37
-5 -20 24 -34 87 -28 118 7 31 7 31 65 27 51 -4 57 -2 52 14 -2 10 -17 32 -32
48 -26 28 -32 30 -91 26 -35 -2 -70 1 -77 7 -9 7 -11 6 -9 -4 2 -8 2 -11 0 -6
-3 4 -8 5 -12 3 -4 -3 -6 9 -4 27 2 29 2 30 -6 7 -7 -21 -9 -16 -10 26 -1 43
7 68 44 143 51 101 97 147 140 139 15 -3 22 -1 18 5 -4 6 5 8 25 4 20 -4 32
-2 32 4 0 13 5 10 133 -84z m609 60 c42 -11 45 -14 36 -32 -31 -58 -79 -79
-132 -59 -25 10 -19 34 8 34 13 0 29 7 36 15 10 13 9 15 -9 15 -26 0 -61 17
-61 30 0 21 34 20 122 -3z m-58 -131 c37 -13 38 -14 18 -25 -38 -20 -62 -9
-62 30 0 11 -3 11 44 -5z m-1125 -427 c17 -6 31 -14 31 -17 0 -4 -60 -7 -133
-7 -111 0 -137 -3 -161 -18 -15 -10 -35 -17 -44 -15 -27 5 40 47 90 57 63 13
180 13 217 0z m759 -48 c11 -30 7 -41 -14 -41 -16 0 -24 23 -17 49 7 29 19 26
31 -8z m-158 16 c0 -1 4 -17 9 -35 9 -31 9 -32 -20 -32 -30 0 -37 17 -23 54 5
13 34 24 34 13z m78 -9 c5 -7 12 -23 16 -34 6 -18 2 -22 -24 -26 -28 -4 -30
-2 -30 27 0 44 17 58 38 33z m-278 -28 c0 -8 -41 -9 -127 -4 -71 4 -130 8
-132 10 -2 2 55 4 127 4 85 0 132 -4 132 -10z m-592 -92 c-5 -15 -58 -24 -58
-10 0 15 12 22 38 22 14 0 22 -5 20 -12z m72 -3 c0 -10 -10 -15 -30 -15 -29 0
-38 9 -23 23 13 13 53 7 53 -8z m617 -70 c3 -9 3 -19 -1 -22 -7 -7 -36 16 -36
28 0 15 30 10 37 -6z m121 -7 l5 -22 8 22 c7 18 16 22 49 22 34 0 41 -3 38
-17 -2 -12 -19 -22 -51 -30 -59 -14 -140 2 -145 30 -3 14 4 17 43 17 40 0 48
-3 53 -22z m162 14 c0 -10 -22 -32 -32 -32 -4 0 -8 9 -8 20 0 13 7 20 20 20
11 0 20 -4 20 -8z m-311 -88 c33 -28 65 -27 54 2 -5 15 -4 15 25 0 17 -9 37
-16 45 -16 8 0 21 -10 29 -22 15 -22 14 -23 -44 -35 -35 -7 -68 -9 -81 -4 -25
10 -89 86 -80 95 11 10 21 7 52 -20z"/>
<path d="M2192 3074 c-17 -11 -22 -25 -22 -56 0 -25 -7 -49 -17 -60 -15 -17
-15 -20 7 -43 13 -14 41 -31 62 -37 23 -7 34 -14 27 -19 -15 -9 14 -25 63 -34
88 -17 148 37 148 134 l0 53 -32 -6 c-34 -6 -98 23 -98 44 0 14 -55 40 -87 40
-16 0 -39 -7 -51 -16z m148 -103 c0 -28 -28 -47 -48 -34 -24 15 -27 44 -7 59
22 17 55 1 55 -25z"/>
<path d="M2464 2853 c-55 -72 -70 -160 -32 -187 20 -14 24 -14 45 -1 20 14 26
14 46 0 21 -13 25 -13 45 1 25 18 28 51 8 107 -15 41 -64 117 -76 117 -4 0
-20 -16 -36 -37z"/>
<path d="M3115 3360 c10 -11 20 -20 23 -20 3 0 -3 9 -13 20 -10 11 -20 20 -23
20 -3 0 3 -9 13 -20z"/>
<path d="M1854 3328 l-29 -33 33 29 c30 28 37 36 29 36 -2 0 -16 -15 -33 -32z"/>
<path d="M1442 3230 c0 -14 2 -19 5 -12 2 6 2 18 0 25 -3 6 -5 1 -5 -13z"/>
<path d="M2012 1275 c-17 -36 -32 -68 -32 -71 0 -3 10 -4 22 -2 17 2 24 14 35
62 7 33 12 64 11 68 -2 5 -18 -21 -36 -57z"/>
<path d="M3465 1498 c-27 -125 -33 -153 -30 -157 12 -11 38 14 55 51 22 48 25
80 10 109 -14 25 -28 24 -35 -3z"/>
<path d="M1882 698 c2 -13 8 -23 13 -23 6 0 11 10 13 23 2 15 -2 22 -13 22
-11 0 -15 -7 -13 -22z"/>
<path d="M1893 653 c-19 -7 -16 -53 2 -53 10 0 15 10 15 30 0 17 -1 30 -2 29
-2 0 -9 -3 -15 -6z"/>
<path d="M2050 695 c0 -16 6 -25 15 -25 9 0 15 9 15 25 0 16 -6 25 -15 25 -9
0 -15 -9 -15 -25z"/>
<path d="M2490 695 c0 -14 5 -25 10 -25 6 0 10 11 10 25 0 14 -4 25 -10 25 -5
0 -10 -11 -10 -25z"/>
</g>
</svg>
